<svg width="1022" height="224" viewBox="0 0 1022 224" fill="none" xmlns="http://www.w3.org/2000/svg">
<path d="M169.083 148.113C174.272 153.269 182.69 153.269 187.879 148.113L260.582 75.2619C266.348 69.4803 266.328 60.1561 260.539 54.403L245.725 39.6839L225.242 19.3311L225.04 19.5316L212.74 7.54812C207.776 2.71177 201.097 0 194.145 0H41.4938C33.4744 0 29.5008 9.6679 35.2282 15.2443L77.8859 56.8045C83.1521 61.9368 90.2345 64.8062 97.6051 64.8062H161.044C167.843 64.8062 171.25 72.975 166.44 77.7493L140.71 103.316C136.15 107.846 128.75 107.846 124.191 103.316L95.8129 75.1234C90.6236 69.9672 82.2103 69.9672 77.0162 75.1234L4.31363 147.974C-1.45703 153.756 -1.43303 163.08 4.35685 168.833L19.1703 183.552L39.6535 203.905L39.8553 203.705L52.1558 215.693C57.1192 220.529 63.798 223.241 70.7507 223.241H223.402C231.421 223.241 235.395 213.573 229.667 207.997L187.01 166.437C181.743 161.304 174.666 158.43 167.29 158.435H103.851C97.0526 158.435 93.6459 150.266 98.4556 145.492L124.186 119.925C128.746 115.395 136.145 115.395 140.705 119.925L169.083 148.113Z" fill="#31C75C"/>
<path d="M412.057 71.5429C412.76 73.1833 412.971 74.9174 412.689 76.7452C412.408 78.5262 411.658 80.0494 410.44 81.3148L350.121 148.593H411.916V166.871H329.523C327.742 166.871 326.078 166.379 324.532 165.395C323.032 164.364 321.907 163.028 321.157 161.388C320.361 159.748 320.103 158.037 320.384 156.256C320.712 154.475 321.462 152.928 322.634 151.616L383.093 84.3378H321.157V66.0594H403.691C405.472 66.0594 407.112 66.575 408.612 67.6061C410.159 68.5903 411.307 69.9026 412.057 71.5429ZM518.844 166.871H452.902C451.215 166.871 449.387 166.684 447.418 166.309C445.497 165.887 443.575 165.255 441.654 164.411C439.779 163.567 437.975 162.489 436.24 161.177C434.506 159.818 432.96 158.201 431.601 156.326C430.288 154.405 429.234 152.202 428.437 149.718C427.64 147.187 427.242 144.352 427.242 141.211V91.7194C427.242 90.0322 427.429 88.2278 427.804 86.3062C428.226 84.3378 428.859 82.4162 429.702 80.5415C430.546 78.6199 431.647 76.7921 433.007 75.058C434.366 73.3239 435.983 71.8007 437.857 70.4884C439.779 69.1293 441.982 68.0513 444.466 67.2546C446.95 66.4578 449.762 66.0594 452.902 66.0594H518.844V84.3378H452.902C450.512 84.3378 448.684 84.9705 447.418 86.2359C446.153 87.5013 445.52 89.376 445.52 91.86V141.211C445.52 143.555 446.153 145.383 447.418 146.695C448.731 147.96 450.558 148.593 452.902 148.593H518.844V166.871ZM640.395 126.097C640.395 132.236 639.341 137.884 637.232 143.039C635.123 148.195 632.193 152.647 628.444 156.397C624.695 160.146 620.242 163.075 615.087 165.184C609.978 167.246 604.401 168.277 598.355 168.277H573.609C567.563 168.277 561.963 167.246 556.807 165.184C551.652 163.075 547.199 160.146 543.45 156.397C539.7 152.647 536.748 148.195 534.592 143.039C532.483 137.884 531.428 132.236 531.428 126.097V106.834C531.428 100.741 532.483 95.1173 534.592 89.9619C536.748 84.7596 539.7 80.3072 543.45 76.6046C547.199 72.8552 551.652 69.926 556.807 67.817C561.963 65.7079 567.563 64.6534 573.609 64.6534H598.355C604.401 64.6534 609.978 65.7079 615.087 67.817C620.242 69.926 624.695 72.8552 628.444 76.6046C632.193 80.3072 635.123 84.7596 637.232 89.9619C639.341 95.1173 640.395 100.741 640.395 106.834V126.097ZM622.117 106.834C622.117 103.225 621.531 99.9681 620.359 97.0623C619.235 94.1097 617.618 91.6022 615.509 89.5401C613.446 87.431 610.939 85.8141 607.986 84.6893C605.081 83.5176 601.87 82.9318 598.355 82.9318H573.609C570.047 82.9318 566.79 83.5176 563.837 84.6893C560.931 85.8141 558.424 87.431 556.315 89.5401C554.206 91.6022 552.566 94.1097 551.394 97.0623C550.269 99.9681 549.707 103.225 549.707 106.834V126.097C549.707 129.706 550.269 132.986 551.394 135.939C552.566 138.845 554.206 141.352 556.315 143.461C558.424 145.523 560.931 147.14 563.837 148.312C566.79 149.437 570.047 149.999 573.609 149.999H598.215C601.776 149.999 605.01 149.437 607.916 148.312C610.869 147.14 613.4 145.523 615.509 143.461C617.618 141.352 619.235 138.845 620.359 135.939C621.531 132.986 622.117 129.706 622.117 126.097V106.834ZM759.064 124.691C759.064 130.83 757.986 136.478 755.83 141.633C753.721 146.789 750.792 151.241 747.042 154.991C743.293 158.693 738.84 161.599 733.685 163.708C728.53 165.817 722.929 166.871 716.883 166.871H667.532C666.219 166.871 665.001 166.637 663.876 166.168C662.751 165.7 661.767 165.067 660.923 164.27C660.127 163.427 659.494 162.442 659.025 161.318C658.556 160.193 658.322 158.974 658.322 157.662V75.2689C658.322 74.0035 658.556 72.8084 659.025 71.6835C659.494 70.5587 660.127 69.5745 660.923 68.7309C661.767 67.8873 662.751 67.2311 663.876 66.7625C665.001 66.2938 666.219 66.0594 667.532 66.0594H716.883C722.929 66.0594 728.53 67.114 733.685 69.223C738.84 71.332 743.293 74.2613 747.042 78.0107C750.792 81.7132 753.721 86.1656 755.83 91.3679C757.986 96.5233 759.064 102.147 759.064 108.24V124.691ZM740.786 108.24C740.786 104.678 740.2 101.421 739.028 98.4683C737.903 95.5157 736.286 93.0083 734.177 90.9461C732.068 88.8371 729.537 87.2201 726.585 86.0953C723.679 84.9236 720.445 84.3378 716.883 84.3378H676.6V148.593H716.883C720.445 148.593 723.679 148.031 726.585 146.906C729.537 145.734 732.068 144.117 734.177 142.055C736.286 139.946 737.903 137.439 739.028 134.533C740.2 131.58 740.786 128.299 740.786 124.691V108.24ZM859.876 125.675H802.158V107.256H859.876V125.675ZM868.101 166.871H802.158C799.628 166.871 796.862 166.426 793.863 165.536C790.863 164.645 788.075 163.192 785.497 161.177C782.966 159.115 780.834 156.467 779.1 153.233C777.412 149.952 776.569 145.945 776.569 141.211V75.2689C776.569 74.0035 776.803 72.8084 777.272 71.6835C777.741 70.5587 778.373 69.5745 779.17 68.7309C780.014 67.8873 780.998 67.2311 782.123 66.7625C783.247 66.2938 784.466 66.0594 785.778 66.0594H868.101V84.3378H794.847V141.211C794.847 143.602 795.48 145.43 796.745 146.695C798.011 147.96 799.862 148.593 802.299 148.593H868.101V166.871ZM986.418 124.691C986.418 130.83 985.34 136.478 983.184 141.633C981.075 146.789 978.146 151.241 974.397 154.991C970.647 158.693 966.195 161.599 961.039 163.708C955.884 165.817 950.283 166.871 944.237 166.871H894.886C893.574 166.871 892.355 166.637 891.23 166.168C890.105 165.7 889.121 165.067 888.278 164.27C887.481 163.427 886.848 162.442 886.379 161.318C885.911 160.193 885.676 158.974 885.676 157.662V75.2689C885.676 74.0035 885.911 72.8084 886.379 71.6835C886.848 70.5587 887.481 69.5745 888.278 68.7309C889.121 67.8873 890.105 67.2311 891.23 66.7625C892.355 66.2938 893.574 66.0594 894.886 66.0594H944.237C950.283 66.0594 955.884 67.114 961.039 69.223C966.195 71.332 970.647 74.2613 974.397 78.0107C978.146 81.7132 981.075 86.1656 983.184 91.3679C985.34 96.5233 986.418 102.147 986.418 108.24V124.691ZM968.14 108.24C968.14 104.678 967.554 101.421 966.382 98.4683C965.257 95.5157 963.641 93.0083 961.531 90.9461C959.422 88.8371 956.892 87.2201 953.939 86.0953C951.033 84.9236 947.799 84.3378 944.237 84.3378H903.955V148.593H944.237C947.799 148.593 951.033 148.031 953.939 146.906C956.892 145.734 959.422 144.117 961.531 142.055C963.641 139.946 965.257 137.439 966.382 134.533C967.554 131.58 968.14 128.299 968.14 124.691V108.24Z" fill="white" fill-opacity="0.8"/>
</svg>
